<mxfile host="Electron" modified="2023-09-14T11:35:17.458Z" agent="Mozilla/5.0 (Windows NT 10.0; Win64; x64) AppleWebKit/537.36 (KHTML, like Gecko) draw.io/21.6.8 Chrome/114.0.5735.289 Electron/25.5.0 Safari/537.36" version="21.6.8" etag="Rhn8SjlIB1gaLCzJkoVG" type="device">
  <diagram id="Z3NxBisAeACcRDOFn9GI" name="Страница — 1">
    <mxGraphModel dx="819" dy="478" grid="1" gridSize="10" guides="1" tooltips="1" connect="1" arrows="1" fold="1" page="1" pageScale="1" pageWidth="827" pageHeight="1169" math="0" shadow="0">
      <root>
        <mxCell id="0" />
        <mxCell id="1" parent="0" />
        <mxCell id="pakk8yyFk-1itWEArTHI-381" value="Клиент" style="shape=umlActor;verticalLabelPosition=bottom;verticalAlign=top;html=1;" vertex="1" parent="1">
          <mxGeometry x="90" y="60" width="30" height="60" as="geometry" />
        </mxCell>
        <mxCell id="pakk8yyFk-1itWEArTHI-392" style="edgeStyle=orthogonalEdgeStyle;rounded=0;orthogonalLoop=1;jettySize=auto;html=1;entryX=1;entryY=0.5;entryDx=0;entryDy=0;" edge="1" parent="1" source="pakk8yyFk-1itWEArTHI-382" target="pakk8yyFk-1itWEArTHI-386">
          <mxGeometry relative="1" as="geometry">
            <mxPoint x="350" y="90" as="sourcePoint" />
            <Array as="points">
              <mxPoint x="350" y="90" />
              <mxPoint x="350" y="90" />
            </Array>
          </mxGeometry>
        </mxCell>
        <mxCell id="pakk8yyFk-1itWEArTHI-382" value="Сотрудник" style="shape=umlActor;verticalLabelPosition=bottom;verticalAlign=top;html=1;" vertex="1" parent="1">
          <mxGeometry x="350" y="60" width="30" height="60" as="geometry" />
        </mxCell>
        <mxCell id="pakk8yyFk-1itWEArTHI-401" style="edgeStyle=orthogonalEdgeStyle;rounded=0;orthogonalLoop=1;jettySize=auto;html=1;exitX=0.5;exitY=0;exitDx=0;exitDy=0;exitPerimeter=0;entryX=0.5;entryY=1;entryDx=0;entryDy=0;" edge="1" parent="1" source="pakk8yyFk-1itWEArTHI-385" target="pakk8yyFk-1itWEArTHI-399">
          <mxGeometry relative="1" as="geometry" />
        </mxCell>
        <mxCell id="pakk8yyFk-1itWEArTHI-385" value="Кладовщик" style="shape=umlActor;verticalLabelPosition=bottom;verticalAlign=top;html=1;" vertex="1" parent="1">
          <mxGeometry x="90" y="295" width="30" height="60" as="geometry" />
        </mxCell>
        <mxCell id="pakk8yyFk-1itWEArTHI-393" style="edgeStyle=orthogonalEdgeStyle;rounded=0;orthogonalLoop=1;jettySize=auto;html=1;exitX=0;exitY=0.5;exitDx=0;exitDy=0;" edge="1" parent="1" source="pakk8yyFk-1itWEArTHI-386">
          <mxGeometry relative="1" as="geometry">
            <mxPoint x="110" y="90" as="targetPoint" />
          </mxGeometry>
        </mxCell>
        <mxCell id="pakk8yyFk-1itWEArTHI-386" value="принять заказ" style="ellipse;whiteSpace=wrap;html=1;" vertex="1" parent="1">
          <mxGeometry x="170" y="55" width="140" height="70" as="geometry" />
        </mxCell>
        <mxCell id="pakk8yyFk-1itWEArTHI-387" value="группировать заказы по типом компьютеров" style="ellipse;whiteSpace=wrap;html=1;" vertex="1" parent="1">
          <mxGeometry x="450" y="105" width="140" height="70" as="geometry" />
        </mxCell>
        <mxCell id="pakk8yyFk-1itWEArTHI-388" value="собирать и тестировать компьютеры" style="ellipse;whiteSpace=wrap;html=1;" vertex="1" parent="1">
          <mxGeometry x="380" y="190" width="140" height="70" as="geometry" />
        </mxCell>
        <mxCell id="pakk8yyFk-1itWEArTHI-389" value="упаковывать компьютеры согласно заказам" style="ellipse;whiteSpace=wrap;html=1;" vertex="1" parent="1">
          <mxGeometry x="210" y="220" width="140" height="70" as="geometry" />
        </mxCell>
        <mxCell id="pakk8yyFk-1itWEArTHI-395" value="" style="endArrow=open;endFill=1;endSize=12;html=1;rounded=0;entryX=0.5;entryY=0;entryDx=0;entryDy=0;" edge="1" parent="1" target="pakk8yyFk-1itWEArTHI-389">
          <mxGeometry width="160" relative="1" as="geometry">
            <mxPoint x="340" y="140" as="sourcePoint" />
            <mxPoint x="320" y="290" as="targetPoint" />
          </mxGeometry>
        </mxCell>
        <mxCell id="pakk8yyFk-1itWEArTHI-396" value="" style="endArrow=open;endFill=1;endSize=12;html=1;rounded=0;entryX=0;entryY=0;entryDx=0;entryDy=0;" edge="1" parent="1" source="pakk8yyFk-1itWEArTHI-382" target="pakk8yyFk-1itWEArTHI-387">
          <mxGeometry width="160" relative="1" as="geometry">
            <mxPoint x="390" y="90" as="sourcePoint" />
            <mxPoint x="810" y="145" as="targetPoint" />
          </mxGeometry>
        </mxCell>
        <mxCell id="pakk8yyFk-1itWEArTHI-397" value="" style="endArrow=open;endFill=1;endSize=12;html=1;rounded=0;entryX=0.311;entryY=0.045;entryDx=0;entryDy=0;entryPerimeter=0;" edge="1" parent="1" target="pakk8yyFk-1itWEArTHI-388">
          <mxGeometry width="160" relative="1" as="geometry">
            <mxPoint x="390" y="140" as="sourcePoint" />
            <mxPoint x="810" y="115" as="targetPoint" />
          </mxGeometry>
        </mxCell>
        <mxCell id="pakk8yyFk-1itWEArTHI-402" style="edgeStyle=orthogonalEdgeStyle;rounded=0;orthogonalLoop=1;jettySize=auto;html=1;exitX=0.5;exitY=0;exitDx=0;exitDy=0;" edge="1" parent="1" source="pakk8yyFk-1itWEArTHI-399">
          <mxGeometry relative="1" as="geometry">
            <mxPoint x="105" y="140" as="targetPoint" />
          </mxGeometry>
        </mxCell>
        <mxCell id="pakk8yyFk-1itWEArTHI-399" value="отгружать клиентам заказы" style="ellipse;whiteSpace=wrap;html=1;" vertex="1" parent="1">
          <mxGeometry x="35" y="175" width="140" height="70" as="geometry" />
        </mxCell>
        <mxCell id="pakk8yyFk-1itWEArTHI-407" value="" style="endArrow=open;endFill=1;endSize=12;html=1;rounded=0;exitX=0.05;exitY=0.739;exitDx=0;exitDy=0;exitPerimeter=0;" edge="1" parent="1" source="pakk8yyFk-1itWEArTHI-389">
          <mxGeometry width="160" relative="1" as="geometry">
            <mxPoint x="200" y="270" as="sourcePoint" />
            <mxPoint x="130" y="310" as="targetPoint" />
          </mxGeometry>
        </mxCell>
      </root>
    </mxGraphModel>
  </diagram>
</mxfile>
